<?xml version="1.0" encoding="utf-8"?>
<!-- Generator: Adobe Illustrator 19.1.0, SVG Export Plug-In . SVG Version: 6.00 Build 0)  -->
<svg version="1.1" id="Layer_1" xmlns="http://www.w3.org/2000/svg" xmlns:xlink="http://www.w3.org/1999/xlink" x="0px" y="0px"
	 width="21px" height="16px" viewBox="0 0 21 16" style="enable-background:new 0 0 21 16;" xml:space="preserve">
<g>
	<path d="M19.3,0H6.1C5.5,0,5.1,0.3,4.7,0.8L0,8l4.7,7.2C5.1,15.6,5.5,16,6.1,16h13.1c1,0,1.7-0.8,1.7-1.8V1.8C21,0.8,20.2,0,19.3,0
		L19.3,0z M16.6,11.2l-1.2,1.2l-3.1-3.2l-3.1,3.2l-1.2-1.2L11,8L7.9,4.8l1.2-1.2l3.1,3.2l3.1-3.2l1.2,1.2L13.5,8L16.6,11.2z
		 M16.6,11.2"/>
</g>
</svg>
